<?xml version="1.0" standalone="no"?>
<!DOCTYPE svg PUBLIC "-//W3C//DTD SVG 20010904//EN"
 "http://www.w3.org/TR/2001/REC-SVG-20010904/DTD/svg10.dtd">
<svg version="1.0" xmlns="http://www.w3.org/2000/svg"
 width="867.000000pt" height="867.000000pt" viewBox="0 0 867.000000 867.000000"
 preserveAspectRatio="xMidYMid meet">
<metadata>
Created by potrace 1.11, written by Peter Selinger 2001-2013
</metadata>
<g transform="translate(0.000000,867.000000) scale(0.100000,-0.100000)"
fill="#000000" stroke="none">
<path d="M5378 7925 c-184 -39 -357 -218 -503 -520 -155 -321 -249 -605 -435
-1320 -45 -170 -90 -339 -100 -375 -11 -36 -35 -130 -55 -210 -72 -291 -121
-419 -189 -492 -19 -21 -37 -38 -39 -38 -5 0 -21 114 -32 215 -6 57 -13 188
-20 355 -9 215 -20 382 -30 460 -3 19 -7 60 -10 90 -6 61 -13 115 -21 175 -3
22 -7 51 -9 65 -81 596 -210 1058 -362 1295 -134 208 -372 312 -611 266 -316
-61 -615 -378 -693 -736 -17 -78 -20 -279 -5 -345 3 -14 9 -41 12 -60 24 -132
68 -278 182 -600 108 -305 167 -494 187 -602 3 -11 9 -35 14 -52 6 -17 13 -42
15 -56 3 -14 15 -65 26 -115 21 -91 45 -205 55 -260 13 -76 38 -233 41 -265
15 -159 19 -232 19 -419 l0 -213 -35 -30 c-19 -16 -107 -82 -196 -147 -198
-145 -200 -147 -300 -246 -126 -124 -198 -245 -238 -400 -40 -157 -41 -426 0
-630 8 -44 18 -91 20 -105 3 -14 14 -59 26 -100 11 -41 21 -82 23 -90 36 -153
182 -486 293 -669 174 -290 398 -490 707 -637 339 -160 723 -240 1135 -238
321 2 554 55 822 189 219 110 447 299 598 495 19 25 37 47 40 50 3 3 26 34 51
70 185 264 329 591 429 970 20 80 40 129 62 160 308 436 419 683 419 934 0
245 -110 380 -422 516 -52 23 -135 64 -184 91 l-90 49 1 46 c3 107 -37 212
-108 290 -23 26 -108 90 -188 142 -161 105 -220 150 -220 166 0 13 131 305
217 486 102 212 132 280 200 440 35 85 68 164 73 175 34 74 132 398 146 480 2
17 7 37 9 45 2 8 7 35 10 60 4 24 8 47 10 50 6 10 18 188 19 290 1 95 -3 145
-20 262 -25 179 -118 375 -220 469 -51 47 -137 96 -204 116 -77 23 -234 27
-322 8z m246 -345 c143 -47 246 -173 272 -331 10 -64 11 -220 2 -297 -41 -354
-180 -733 -528 -1447 -140 -286 -172 -355 -209 -442 -19 -45 -38 -70 -66 -91
-73 -53 -156 -135 -219 -216 -145 -186 -218 -330 -414 -811 -119 -292 -125
-305 -138 -305 -18 0 -117 36 -163 59 -81 42 -146 95 -291 237 -223 219 -287
266 -415 309 -110 37 -267 37 -383 1 -19 -6 -21 -4 -17 26 13 118 17 191 16
333 -1 88 -3 178 -6 200 -2 22 -7 67 -10 100 -20 211 -95 566 -192 910 -14 50
-26 97 -28 105 -8 34 -38 138 -105 360 -68 224 -132 465 -145 540 -14 87 -17
209 -6 260 28 133 142 294 266 375 106 69 235 88 325 48 80 -36 166 -136 233
-270 62 -123 141 -362 182 -550 23 -107 63 -305 69 -343 3 -19 8 -46 10 -60 8
-42 17 -103 22 -140 2 -19 6 -46 9 -60 7 -39 19 -151 29 -272 13 -148 16 -197
21 -293 3 -55 8 -120 10 -145 2 -25 7 -74 10 -110 4 -36 8 -81 11 -100 4 -34
6 -59 19 -210 23 -269 98 -436 218 -490 37 -17 44 -17 76 -4 86 36 169 138
211 258 10 31 37 135 59 233 37 164 63 249 141 468 16 44 53 150 84 235 30 86
61 173 69 195 23 61 87 262 176 550 142 461 204 631 308 840 64 130 168 295
218 348 26 27 28 27 117 23 52 -3 117 -14 152 -26z m-129 -2969 c40 -20 93
-59 135 -99 l69 -67 -4 -155 c-5 -160 -8 -190 -25 -276 -6 -28 -13 -61 -15
-75 -25 -131 -108 -330 -205 -489 -36 -59 -176 -257 -213 -302 l-22 -27 -1 77
c-2 125 -65 255 -163 335 -115 93 -258 105 -423 33 -15 -7 -16 -2 -12 36 42
365 281 827 504 974 91 60 140 74 237 70 57 -2 86 -10 138 -35z m536 -592
c121 -40 191 -85 287 -188 50 -52 53 -58 48 -96 -7 -53 -76 -262 -133 -400
-176 -433 -422 -695 -725 -773 -134 -34 -345 -24 -491 24 l-47 16 22 39 c36
65 114 130 257 215 154 91 223 154 304 276 96 145 166 298 268 593 113 322
110 315 128 315 10 0 47 -9 82 -21z m-2622 -115 c36 -31 75 -63 86 -72 39 -32
150 -127 155 -132 3 -3 43 -36 90 -72 150 -116 280 -193 440 -262 51 -22 174
-54 255 -66 67 -11 238 -14 280 -6 11 2 43 6 70 10 28 4 62 9 76 12 22 4 27 1
31 -21 5 -22 -11 -145 -26 -213 -13 -59 -88 -191 -141 -250 -163 -179 -402
-273 -697 -274 -216 -1 -339 43 -608 218 -69 44 -148 93 -175 109 -48 27 -166
75 -184 75 -14 0 -41 -77 -43 -119 -2 -62 35 -121 142 -227 89 -88 142 -156
130 -167 -3 -3 -35 -7 -73 -9 -77 -6 -148 -38 -180 -80 -27 -36 -14 -51 66
-77 88 -30 209 -30 377 0 210 36 378 29 496 -22 47 -20 77 -69 99 -167 18 -78
13 -304 -11 -432 -3 -14 -7 -65 -10 -114 -7 -104 -2 -112 64 -87 60 22 116 72
143 127 40 84 49 154 43 344 -3 96 -7 216 -7 265 l-2 90 70 23 c39 13 79 25
89 27 94 20 179 65 218 115 l24 31 84 -52 c215 -130 433 -206 605 -213 122 -4
217 20 318 83 l35 22 -13 -43 c-73 -243 -307 -550 -595 -779 -143 -113 -367
-242 -478 -274 -103 -30 -238 -55 -329 -62 l-93 -6 -82 41 c-46 22 -105 43
-133 46 -27 4 -57 9 -65 11 -8 2 -46 6 -85 10 -38 3 -77 8 -85 10 -8 2 -53 6
-100 10 -167 13 -325 46 -447 95 -285 114 -555 441 -731 885 -34 87 -87 248
-97 295 -2 8 -9 38 -15 65 -10 44 -18 89 -35 190 -16 93 -23 186 -24 317 l-2
148 37 57 c122 191 318 364 538 475 122 61 358 144 420 147 10 1 49 -24 85
-55z"/>
</g>
</svg>
