<?xml version="1.0" encoding="iso-8859-1"?>
<!-- Generator: Adobe Illustrator 19.0.0, SVG Export Plug-In . SVG Version: 6.00 Build 0)  -->
<svg version="1.1" id="Capa_1" xmlns="http://www.w3.org/2000/svg" xmlns:xlink="http://www.w3.org/1999/xlink" x="0px" y="0px"
	 viewBox="0 0 512.001 512.001" style="enable-background:new 0 0 512.001 512.001;" xml:space="preserve">
<g>
	<g>
		<path d="M62.501,123.498c-12.406,0-22.5,10.093-22.5,22.5c0,9.777,6.271,18.114,15,21.21v13.79c0,4.142,3.357,7.5,7.5,7.5
			c4.143,0,7.5-3.358,7.5-7.5v-13.79c8.729-3.096,15-11.433,15-21.21C85.001,133.591,74.907,123.498,62.501,123.498z
			 M62.501,153.498c-4.136,0-7.5-3.364-7.5-7.5c0-4.136,3.364-7.5,7.5-7.5c4.136,0,7.5,3.364,7.5,7.5
			C70.001,150.134,66.637,153.498,62.501,153.498z"/>
	</g>
</g>
<g>
	<g>
		<path d="M225.999,85.166c-4.143,0-7.5,3.358-7.5,7.5v18.333c0,4.142,3.357,7.5,7.5,7.5s7.5-3.358,7.5-7.5V92.666
			C233.499,88.524,230.142,85.166,225.999,85.166z"/>
	</g>
</g>
<g>
	<g>
		<path d="M62.501,303.499c-12.406,0-22.5,10.093-22.5,22.5c0,9.777,6.271,18.114,15,21.21v13.79c0,4.142,3.357,7.5,7.5,7.5
			s7.5-3.358,7.5-7.5v-13.79c8.729-3.096,15-11.433,15-21.21C85.001,313.592,74.907,303.499,62.501,303.499z M62.501,333.499
			c-4.136,0-7.5-3.364-7.5-7.5s3.364-7.5,7.5-7.5c4.136,0,7.5,3.364,7.5,7.5S66.637,333.499,62.501,333.499z"/>
	</g>
</g>
<g>
	<g>
		<path d="M225.999,265.166c-4.143,0-7.5,3.358-7.5,7.5v18.333c0,4.142,3.357,7.5,7.5,7.5s7.5-3.358,7.5-7.5v-18.333
			C233.499,268.525,230.142,265.166,225.999,265.166z"/>
	</g>
</g>
<g>
	<g>
		<path d="M195.998,265.166c-4.143,0-7.5,3.358-7.5,7.5v18.333c0,4.142,3.357,7.5,7.5,7.5s7.5-3.358,7.5-7.5v-18.333
			C203.498,268.525,200.141,265.166,195.998,265.166z"/>
	</g>
</g>
<g>
	<g>
		<path d="M165.999,265.166c-4.143,0-7.5,3.358-7.5,7.5v18.333c0,4.142,3.357,7.5,7.5,7.5s7.5-3.358,7.5-7.5v-18.333
			C173.499,268.525,170.142,265.166,165.999,265.166z"/>
	</g>
</g>
<g>
	<g>
		<path d="M509.8,55.691c-1.39-1.39-3.33-2.19-5.3-2.19H256.069c-0.022,0-0.044-0.003-0.067-0.003c-0.024,0-0.045,0.003-0.067,0.003
			H7.5c-1.97,0-3.9,0.8-5.3,2.19c-1.4,1.4-2.2,3.33-2.2,5.31v62.99c0,4.14,3.37,7.5,7.5,7.5c4.14,0,7.5-3.36,7.5-7.5v-55.49h233.502
			v164.998H15v-79.508c0-4.13-3.37-7.5-7.5-7.5s-7.5,3.37-7.5,7.5v267.01c0,1.98,0.8,3.91,2.2,5.3c1.399,1.4,3.33,2.2,5.3,2.2
			h248.479c0.007,0,0.013,0.001,0.02,0.001h0.004l191-0.001v22.503c0,2.702,1.453,5.195,3.805,6.526
			c1.147,0.65,2.422,0.974,3.695,0.974c1.337,0,2.673-0.357,3.859-1.069l49.998-30.003c0.047-0.028,0.088-0.064,0.135-0.093
			c0.172-0.109,0.339-0.225,0.502-0.347c0.076-0.057,0.154-0.111,0.228-0.171c0.212-0.172,0.414-0.354,0.605-0.547
			c0.068-0.069,0.13-0.144,0.195-0.215c0.13-0.143,0.257-0.289,0.376-0.441c0.066-0.085,0.13-0.17,0.192-0.257
			c0.12-0.167,0.231-0.339,0.337-0.517c0.041-0.068,0.085-0.133,0.123-0.203c0.141-0.251,0.267-0.51,0.378-0.777
			c0.018-0.044,0.031-0.09,0.049-0.134c0.089-0.227,0.167-0.46,0.233-0.697c0.023-0.081,0.043-0.162,0.064-0.244
			c0.052-0.212,0.094-0.429,0.128-0.648c0.013-0.082,0.027-0.163,0.037-0.246c0.035-0.292,0.059-0.588,0.059-0.89
			c0-0.001,0-0.002,0-0.003v-0.001v-0.02V240.999V61.001C512,59.021,511.2,57.091,509.8,55.691z M248.502,413.501H15v-79.32
			c0-0.07,0-0.13,0-0.19v-85.492h233.502V413.501z M447.002,413.501l-183.5,0.001V248.499h183.5V413.501z M497,416.756
			l-34.998,21.001V224.243L497,245.245V416.756z M497,227.751l-38.639-23.187c-2.317-1.39-5.202-1.427-7.555-0.095
			c-2.352,1.331-3.805,3.824-3.805,6.526v22.503h-183.5V68.501h0.001H497V227.751z"/>
	</g>
</g>
<g>
	<g>
		<path d="M310.999,123.498c-12.406,0-22.5,10.093-22.5,22.5c0,9.777,6.271,18.114,15,21.21v13.79c0,4.142,3.357,7.5,7.5,7.5
			s7.5-3.358,7.5-7.5v-13.79c8.729-3.096,15-11.433,15-21.21C333.499,133.59,323.405,123.498,310.999,123.498z M310.999,153.498
			c-4.136,0-7.5-3.364-7.5-7.5c0-4.136,3.364-7.5,7.5-7.5s7.5,3.364,7.5,7.5C318.499,150.133,315.135,153.498,310.999,153.498z"/>
	</g>
</g>
<g>
	<g>
		<path d="M474.497,85.166c-4.143,0-7.5,3.358-7.5,7.5v18.333c0,4.142,3.357,7.5,7.5,7.5c4.142,0,7.5-3.358,7.5-7.5V92.666
			C481.997,88.524,478.639,85.166,474.497,85.166z"/>
	</g>
</g>
<g>
	<g>
		<path d="M444.498,85.166c-4.142,0-7.5,3.358-7.5,7.5v18.333c0,4.142,3.358,7.5,7.5,7.5c4.143,0,7.5-3.358,7.5-7.5V92.666
			C451.998,88.524,448.641,85.166,444.498,85.166z"/>
	</g>
</g>
<g>
	<g>
		<path d="M416.004,313.501H333.5v-32.5c0-4.142-3.357-7.5-7.5-7.5h-40c-4.143,0-7.5,3.358-7.5,7.5v110c0,4.142,3.357,7.5,7.5,7.5
			h40h90.004c4.143,0,7.5-3.358,7.5-7.5v-70C423.504,316.858,420.147,313.501,416.004,313.501z M318.5,321.001v62.5h-25v-95h25
			V321.001z M408.504,383.501H333.5v-55h75.004V383.501z"/>
	</g>
</g>
<g>
</g>
<g>
</g>
<g>
</g>
<g>
</g>
<g>
</g>
<g>
</g>
<g>
</g>
<g>
</g>
<g>
</g>
<g>
</g>
<g>
</g>
<g>
</g>
<g>
</g>
<g>
</g>
<g>
</g>
</svg>
